{
  "accessors": [
    {
      "bufferView": 1,
      "componentType": 5126,
      "count": 4187,
      "max": [
        22.616001129150391,
        19.869029998779297,
        39
      ],
      "min": [
        4.6160001754760742,
        12.912998199462891,
        0
      ],
      "type": "VEC3"
    },
    {
      "bufferView": 1,
      "byteOffset": 50244,
      "componentType": 5126,
      "count": 4187,
      "max": [
        1,
        0.98700779676437378,
        1
      ],
      "min": [
        -0.99999994039535522,
        -1,
        -0.76646184921264648
      ],
      "type": "VEC3"
    },
    {
      "bufferView": 0,
      "componentType": 5125,
      "count": 13899,
      "max": [
        4186
      ],
      "min": [
        0
      ],
      "type": "SCALAR"
    },
    {
      "bufferView": 1,
      "byteOffset": 100488,
      "componentType": 5126,
      "count": 84,
      "max": [
        28.340000152587891,
        25,
        149
      ],
      "min": [
        0,
        0,
        129
      ],
      "type": "VEC3"
    },
    {
      "bufferView": 1,
      "byteOffset": 101496,
      "componentType": 5126,
      "count": 84,
      "max": [
        0.99340897798538208,
        1,
        1
      ],
      "min": [
        -0.99340897798538208,
        -0.87813198566436768,
        -1
      ],
      "type": "VEC3"
    },
    {
      "bufferView": 0,
      "byteOffset": 55596,
      "componentType": 5125,
      "count": 162,
      "max": [
        83
      ],
      "min": [
        0
      ],
      "type": "SCALAR"
    },
    {
      "bufferView": 1,
      "byteOffset": 102504,
      "componentType": 5126,
      "count": 601,
      "max": [
        17.116001129150391,
        20,
        150
      ],
      "min": [
        10.116000175476074,
        12.912998199462891,
        38
      ],
      "type": "VEC3"
    },
    {
      "bufferView": 1,
      "byteOffset": 109716,
      "componentType": 5126,
      "count": 601,
      "max": [
        1,
        1,
        1
      ],
      "min": [
        -1,
        -1,
        -1
      ],
      "type": "VEC3"
    },
    {
      "bufferView": 0,
      "byteOffset": 56244,
      "componentType": 5125,
      "count": 1827,
      "max": [
        600
      ],
      "min": [
        0
      ],
      "type": "SCALAR"
    }
  ],
  "asset": {
    "extras": {
      "author": "SnakeSwat (https://sketchfab.com/SnakeSwat)",
      "license": "CC-BY-4.0 (http://creativecommons.org/licenses/by/4.0/)",
      "source": "https://sketchfab.com/models/5f63b3bfd01b41a394d4d6b33a3dc252",
      "title": "Random Arrow"
    },
    "generator": "Sketchfab-3.18.7",
    "version": "2.0"
  },
  "bufferViews": [
    {
      "buffer": 0,
      "byteLength": 63552,
      "byteOffset": 0,
      "name": "floatBufferViews",
      "target": 34963
    },
    {
      "buffer": 0,
      "byteLength": 116928,
      "byteOffset": 63552,
      "byteStride": 12,
      "name": "floatBufferViews",
      "target": 34962
    }
  ],
  "buffers": [
    {
      "byteLength": 180480,
      "uri": "scene.bin"
    }
  ],
  "materials": [
    {
      "doubleSided": true,
      "emissiveFactor": [
        0,
        0,
        0
      ],
      "name": "color_12568524",
      "pbrMetallicRoughness": {
        "baseColorFactor": [
          0.74902000000000002,
          0.78039199999999997,
          0.80000000000000004,
          1
        ],
        "metallicFactor": 0,
        "roughnessFactor": 0.59999999999999998
      }
    },
    {
      "doubleSided": true,
      "emissiveFactor": [
        0,
        0,
        0
      ],
      "name": "color_15277357",
      "pbrMetallicRoughness": {
        "baseColorFactor": [
          0.91372500000000001,
          0.11372500000000001,
          0.17647099999999999,
          1
        ],
        "metallicFactor": 0,
        "roughnessFactor": 0.59999999999999998
      }
    },
    {
      "doubleSided": true,
      "emissiveFactor": [
        0,
        0,
        0
      ],
      "name": "color_6306067",
      "pbrMetallicRoughness": {
        "baseColorFactor": [
          0.376471,
          0.22352900000000001,
          0.074509800000000001,
          1
        ],
        "metallicFactor": 0,
        "roughnessFactor": 0.59999999999999998
      }
    }
  ],
  "meshes": [
    {
      "primitives": [
        {
          "attributes": {
            "NORMAL": 1,
            "POSITION": 0
          },
          "indices": 2,
          "material": 0,
          "mode": 4
        }
      ]
    },
    {
      "primitives": [
        {
          "attributes": {
            "NORMAL": 4,
            "POSITION": 3
          },
          "indices": 5,
          "material": 1,
          "mode": 4
        }
      ]
    },
    {
      "primitives": [
        {
          "attributes": {
            "NORMAL": 7,
            "POSITION": 6
          },
          "indices": 8,
          "material": 2,
          "mode": 4
        }
      ]
    }
  ],
  "nodes": [
    {
      "children": [
        1
      ],
      "name": "RootNode (gltf orientation matrix)",
      "rotation": [
        -0.70710678118654746,
        -0,
        -0,
        0.70710678118654757
      ]
    },
    {
      "children": [
        2
      ],
      "matrix": [
        0.003327440470457077,
        -0.00067327998112887144,
        0.99999421834945679,
        0,
        0.19832256436347961,
        0.98013681173324585,
        0,
        0,
        -0.98013114929199219,
        0.19832141697406769,
        0.0033948735799640417,
        0,
        29.563949584960938,
        -0.19295275211334229,
        -27.543760299682617,
        1
      ],
      "name": "RootNode (model correction matrix)"
    },
    {
      "children": [
        3
      ],
      "matrix": [
        1,
        0,
        0,
        0,
        0,
        1,
        0,
        0,
        0,
        0,
        1,
        0,
        10.383999824523926,
        -53,
        -78,
        1
      ],
      "name": "tinker.obj.cleaner.materialmerger.gles"
    },
    {
      "children": [
        4,
        5,
        6
      ],
      "name": ""
    },
    {
      "mesh": 0,
      "name": ""
    },
    {
      "mesh": 1,
      "name": ""
    },
    {
      "mesh": 2,
      "name": ""
    }
  ],
  "scene": 0,
  "scenes": [
    {
      "name": "OSG_Scene",
      "nodes": [
        0
      ]
    }
  ]
}

